<svg xmlns="http://www.w3.org/2000/svg" viewBox="0 0 108.205 85.429957"><g transform="translate(-.579 -2.302)"><ellipse cx="100.936" cy="56.61" rx="7.348" ry="11.132" fill="#ccc" stroke="#010202"/><path d="M8.392 46.427c-4.04 0-7.313 4.095-7.313 9.156 0 5.06 3.273 9.156 7.312 9.156s7.313-4.096 7.313-9.157c0-5.06-3.274-9.156-7.313-9.156zm-.344 2.156c3.3 0 6 2.867 6 6.406 0 3.538-2.7 6.405-6 6.405s-5.97-2.867-5.97-6.406c0-3.54 2.67-6.407 5.97-6.407z" fill="#848484" fill-rule="evenodd" stroke="#010202"/><path d="M15.12 56.23c0-.603.488-1.09 1.088-1.09h4.043c.6 0 1.088.487 1.088 1.09 0 .6-.487 1.085-1.087 1.085H16.21c-.6 0-1.087-.486-1.087-1.086z" fill="#848484" stroke="#010202"/><path stroke="#000" d="M79.174 16.16h2.05v18.187h-2.05zM31.626 17.08h2.05v18.19h-2.05z"/><circle cx="80.196" cy="11.623" r="6.382" fill="#48ad3b" stroke="#010202"/><circle cx="32.649" cy="12.546" r="6.381" fill="#e52622" stroke="#010202"/><path d="M20.35 35.425c-2.77 7.075-6.154 33.224 0 43.376 6.15 10.153 62.45 12.614 71.68-.92 4-7.692 7.997-40.303-2.462-45.532-6.834-3.417-66.45-4-69.22 3.077z" fill="#ccc" stroke="#010202"/><path d="M21.42 43.138s-6.038 18.976 0 23.164c6.037 4.184 63.224 4.693 68.906 0 5.684-4.695 5.684-14.996 0-21.388-5.685-6.395-68.906-1.776-68.906-1.776z" fill="#010202" stroke="#010202"/><circle cx="39.281" cy="55.606" r="10.694" fill="#fff" stroke="#28a0c6" stroke-width="2"/><circle cx="39.28" cy="55.784" r="7.07" fill="#fff" stroke="#28a0c6"/><circle cx="39.279" cy="55.784" r="3.458" fill="#28a0c6" stroke="#fff"/><circle cx="74.444" cy="55.606" r="10.694" fill="#fff" stroke="#28a0c6" stroke-width="2"/><circle cx="74.445" cy="55.784" r="7.07" fill="#fff" stroke="#28a0c6"/><circle cx="74.445" cy="55.784" r="3.459" fill="#28a0c6" stroke="#fff"/><path stroke="#000" fill="none" d="M40.846 12.966h3.13l.677-6.153 3.845 13.46L51.266 8.89l1.385 5 2.762-11.088 4.176 20.547 3.062-12.306 2.385 4 3.46-3.42h3.812"/></g></svg>